<?xml version="1.0" standalone="no"?>
<!DOCTYPE svg PUBLIC "-//W3C//DTD SVG 20010904//EN"
 "http://www.w3.org/TR/2001/REC-SVG-20010904/DTD/svg10.dtd">
<svg version="1.0" xmlns="http://www.w3.org/2000/svg"
 width="512.000000pt" height="512.000000pt" viewBox="0 0 512.000000 512.000000"
 preserveAspectRatio="xMidYMid meet">

<g transform="translate(0.000000,512.000000) scale(0.100000,-0.100000)"
fill="#000000" stroke="none">
<path d="M2443 4646 c-74 -24 -169 -84 -244 -156 -41 -39 -63 -66 -49 -59 19
9 14 1 -20 -37 -66 -71 -93 -132 -98 -225 -2 -43 1 -101 8 -131 11 -46 83
-218 92 -218 2 0 4 44 5 99 3 119 23 221 57 289 47 93 109 116 220 82 79 -25
107 -23 191 14 65 28 151 34 202 15 96 -36 158 -175 172 -388 l7 -106 27 82
c65 200 75 420 24 525 -32 66 -80 102 -155 118 -29 7 -75 27 -103 46 -28 18
-74 41 -102 49 -61 18 -176 19 -234 1z"/>
<path d="M2165 3321 c-162 -154 -391 -280 -611 -337 l-71 -18 -13 -149 c-6
-82 -9 -151 -6 -155 4 -3 19 6 34 20 30 29 99 68 119 68 7 0 13 10 13 23 0 57
96 95 158 63 59 -30 65 -77 15 -116 -34 -26 -95 -26 -143 1 l-38 22 -44 -22
c-24 -11 -62 -38 -84 -59 l-40 -39 -13 -174 c-6 -96 -15 -198 -18 -226 l-6
-53 372 0 372 0 -7 23 c-4 12 -31 96 -60 187 -50 157 -129 434 -136 474 -2 15
8 21 50 32 29 8 63 19 76 26 24 13 24 13 -50 98 -41 47 -74 87 -74 90 0 4 18
14 40 24 56 25 136 101 194 185 27 39 47 73 45 75 -2 2 -36 -26 -74 -63z"/>
<path d="M2890 3370 c45 -89 188 -240 226 -240 6 0 18 -6 28 -13 16 -12 11
-20 -54 -102 l-72 -90 39 -17 c21 -10 55 -21 76 -24 20 -4 37 -8 37 -9 0 -13
-111 -387 -154 -521 -31 -94 -56 -174 -56 -178 0 -3 167 -6 370 -6 l371 0 -6
58 c-3 31 -19 209 -35 395 -15 186 -30 340 -33 343 -2 2 -36 13 -75 24 -225
62 -439 181 -601 335 -44 41 -69 60 -61 45z"/>
<path d="M2502 2978 c-29 -44 -52 -87 -50 -96 5 -25 205 -31 214 -7 5 13 -85
167 -105 179 -3 2 -30 -32 -59 -76z"/>
</g>
</svg>
